<?xml version="1.0" standalone="no"?>
<!DOCTYPE svg PUBLIC "-//W3C//DTD SVG 20010904//EN"
 "http://www.w3.org/TR/2001/REC-SVG-20010904/DTD/svg10.dtd">
<svg version="1.0" xmlns="http://www.w3.org/2000/svg"
 width="500.000000pt" height="150.000000pt" viewBox="0 0 500.000000 150.000000"
 preserveAspectRatio="xMidYMid meet">

<g transform="translate(0.000000,150.000000) scale(0.100000,-0.100000)"
fill="#000000" stroke="none">
<path d="M1918 1022 c-74 -71 -76 -73 -116 -66 -61 10 -90 -1 -109 -41 -16
-33 -15 -36 3 -56 19 -21 19 -21 -11 -45 -68 -55 -142 -71 -152 -34 -3 11 -9
20 -13 20 -16 0 -18 -29 -3 -50 23 -32 78 -22 150 27 42 29 72 41 111 46 51 6
53 5 46 -16 -3 -12 -13 -35 -21 -50 -14 -28 -10 -52 8 -41 5 3 23 33 40 67 18
34 38 66 45 70 8 5 12 12 9 18 -4 5 17 49 45 98 74 128 64 145 -32 53z m-6
-77 l-40 -67 -10 29 c-9 26 -6 31 37 70 25 22 48 40 49 38 2 -2 -14 -34 -36
-70z m-102 -16 c0 -15 -59 -69 -76 -69 -8 0 -20 12 -26 26 -11 22 -10 28 7 40
22 17 95 19 95 3z m38 -46 c-3 -25 -7 -28 -48 -31 l-45 -2 33 30 c42 39 64 40
60 3z"/>
<path d="M3295 973 c-103 -114 -205 -216 -211 -210 -3 3 11 37 30 76 39 76 46
128 20 138 -8 3 -21 0 -27 -7 -9 -10 -9 -14 1 -17 19 -7 15 -29 -28 -129 -43
-101 -46 -114 -29 -114 19 0 149 121 239 224 47 52 91 96 98 96 6 0 12 5 12
10 0 29 -43 2 -105 -67z"/>
<path d="M2084 953 c-37 -49 -91 -114 -121 -145 -48 -51 -67 -88 -45 -88 5 0
19 11 32 25 l24 26 13 -26 c18 -33 55 -41 105 -22 35 14 42 14 55 2 19 -20 49
-19 98 4 46 21 69 44 85 85 8 21 7 32 -1 42 -9 11 -5 16 20 25 31 11 43 29 19
29 -21 -1 -98 -38 -98 -48 0 -5 10 -16 21 -24 19 -12 20 -17 10 -37 -28 -52
-127 -82 -138 -41 -6 24 -19 26 -27 5 -11 -30 -126 -15 -126 17 0 4 21 21 47
39 86 59 109 97 53 86 -16 -4 -30 -3 -30 1 0 5 18 33 40 62 36 49 47 70 36 70
-2 0 -35 -39 -72 -87z m2 -88 c-11 -8 -27 -15 -35 -15 -10 1 -7 6 9 15 33 19
50 18 26 0z"/>
<path d="M2510 909 c-41 -51 -90 -103 -108 -117 -34 -26 -58 -60 -49 -69 3 -2
18 9 33 26 36 41 119 93 140 89 13 -2 10 -11 -20 -46 -39 -48 -40 -50 -26 -72
7 -12 16 -13 52 -3 26 7 44 8 46 2 6 -15 35 -10 67 11 36 24 45 25 45 5 0 -12
13 -14 75 -11 75 4 101 15 185 74 19 13 22 14 15 2 -29 -51 -56 -76 -145 -136
-93 -62 -160 -127 -218 -211 -54 -78 1 -83 96 -9 71 55 105 91 176 188 40 55
72 86 111 110 30 18 55 36 55 40 0 13 -10 9 -41 -13 -40 -28 -36 -14 16 67 24
38 45 75 45 83 0 8 -33 -17 -72 -56 -75 -72 -100 -89 -149 -103 -42 -12 -38 9
11 60 39 41 49 60 31 60 -12 0 -69 -66 -94 -108 -15 -26 -25 -32 -46 -30 -32
4 -30 29 5 71 14 16 23 35 21 41 -12 36 -116 -6 -157 -64 -32 -45 -110 -80
-110 -49 0 7 16 31 35 55 44 54 45 74 4 74 l-31 0 30 38 c95 121 72 122 -28 1z
m220 -77 c0 -11 -61 -67 -88 -82 -30 -15 -39 -6 -23 24 19 35 111 84 111 58z
m112 -215 c-38 -54 -184 -192 -211 -200 -33 -8 -33 7 -2 50 45 62 225 212 239
199 2 -3 -10 -24 -26 -49z"/>
<path d="M3383 890 c-48 -21 -52 -31 -22 -52 19 -12 20 -17 10 -37 -28 -52
-127 -82 -138 -41 -8 30 -23 24 -23 -9 0 -21 6 -32 21 -36 75 -24 191 70 173
140 -4 18 -2 25 8 25 8 0 23 7 34 15 19 14 19 14 -1 14 -11 1 -39 -8 -62 -19z"/>
</g>
</svg>
